<svg xmlns="http://www.w3.org/2000/svg" viewBox="0 0 28 28" width="28" height="28"><g fill="#242424"><path d="M5.18 26.21V19H3.07v-1.84h6V19H7v7.24zm8.58.09a3 3 0 0 1-3-3v-3.2a3 3 0 0 1 6 0v3.2a3 3 0 0 1-3 3zm0-1.81a1.21 1.21 0 0 0 1.24-1.2v-3.2a1.21 1.21 0 0 0-2.42 0v3.2a1.21 1.21 0 0 0 1.18 1.21zM24.93 20.18a3 3 0 0 1-3 3H20.7v3h-1.81v-9h3a3 3 0 0 1 3.04 3zm-3 1.21a1.21 1.21 0 1 0 0-2.42H20.7v2.42z"/></g><path fill="#1b1b1b" fill-rule="evenodd" d="M13.51 1.7l7 6.02-1.33 1.49-5.67-4.87-5.66 4.87-1.34-1.49 7-6.02z"/></svg>